<?xml version="1.0" encoding="UTF-8"?>
<svg xmlns="http://www.w3.org/2000/svg" version="1.1" xmlns:xlink="http://www.w3.org/1999/xlink" viewBox="0 0 215.33 215.49">
  <!-- Generator: Adobe Illustrator 29.4.0, SVG Export Plug-In . SVG Version: 2.1.0 Build 152)  -->
  <defs>
    <style>
      .st0 {
        fill: #2d98e5;
      }

      .st1 {
        fill: #8dc540;
      }

      .st2 {
        fill: url(#linear-gradient1);
      }

      .st3 {
        fill: #658930;
      }

      .st4 {
        fill: #72ccd7;
      }

      .st5 {
        fill: #fff;
        opacity: .9;
      }

      .st6 {
        fill: #fde7e6;
      }

      .st7 {
        fill: #fde9e8;
      }

      .st8 {
        fill: #3589f9;
      }

      .st9 {
        fill: #ee4e3d;
      }

      .st10 {
        fill: #feeae9;
      }

      .st11 {
        fill: #fde8e7;
      }

      .st12 {
        fill: #668931;
      }

      .st13 {
        fill: #2c77ff;
      }

      .st14 {
        fill: #fde6e6;
      }

      .st15 {
        fill: #fde8e8;
      }

      .st16 {
        fill: url(#linear-gradient);
      }
    </style>
    <linearGradient id="linear-gradient" x1="51.35" y1="193" x2="184.47" y2="19.55" gradientUnits="userSpaceOnUse">
      <stop offset="0" stop-color="#9efdfd"/>
      <stop offset=".85" stop-color="#6195ff"/>
    </linearGradient>
    <linearGradient id="linear-gradient1" x1="54.2" y1="189.35" x2="180.62" y2="24.62" xlink:href="#linear-gradient"/>
  </defs>
  <g id="Layer_1">
    <path class="st11" d="M-148.09,199.83c-5.47,5.95-19.55-1.97-16.26-8.74,3.92-8.05,22.54,1.91,16.26,8.74Z"/>
    <path class="st14" d="M-179.06,140.84c-5.44,5.44-18.81-6.19-13.85-12.36,5.3-6.6,20.2,6.01,13.85,12.36Z"/>
    <path class="st15" d="M-150.11,112.27c7.68-2.29,15.6,9.11,10.84,13.86-7.68,7.67-19.5-11.28-10.84-13.86Z"/>
    <path class="st11" d="M-221.09,78.24c6.51-1.72,16.76,10.1,9.65,14.75-7.75,5.07-19.17-12.23-9.65-14.75Z"/>
    <path class="st7" d="M-181.11,81.27c8.44-2.52,16.01,10.53,9.67,14.71-7.79,5.13-17.75-12.29-9.67-14.71Z"/>
    <path class="st7" d="M-129.57,85.33c6.14-6.25,18.12,11.17,9.76,15.27-7.93,3.89-14.28-10.66-9.76-15.27Z"/>
    <path class="st6" d="M-231.07,117.25c7.32-1.26,17.11,10.76,9.23,14.31-9.3,4.18-18.88-12.65-9.23-14.31Z"/>
    <path class="st15" d="M-113.58,133.32c7.41-7.4,16.38,11.46,8.78,15.27-8.95,4.49-12.7-11.35-8.78-15.27Z"/>
    <path class="st7" d="M-164.11,49.29c7.23-2.19,17.25,5.28,11.89,12.89-7.78,6.15-20.58-10.27-11.89-12.89Z"/>
    <path class="st11" d="M-114.18,176.34c7.74-.82,16.4,16.28,4.89,15.82-8.9-.36-13.71-14.88-4.89-15.82Z"/>
    <path class="st11" d="M-196.1,171.27c11.11-3.29,20.36,15.84,5.86,13.77-7.85-1.12-12.16-11.9-5.86-13.77Z"/>
    <path class="st10" d="M-151.1,152.26c9.79-1.49,19.7,17.06,3.01,13.59-7.59-1.58-11.27-12.33-3.01-13.59Z"/>
    <path class="st9" d="M-263.82,129.08c1.53-15.79,13.15-38.65,23-51,4.24-5.31,10.8-11.5,16-16,7.38-6.38,19.2-15.02,28-19,6.29-2.84,17.19-6.09,24-7,68.45-9.16,94.84,91.33,86.73,143.23-3.45,22.06-10.32,30.57-32.55,34.45-51.61,9.01-151.73-17.02-145.18-84.68h0ZM-164.11,49.29c-8.68,2.62,4.12,19.05,11.89,12.89,5.36-7.61-4.66-15.08-11.89-12.89ZM-221.09,78.24c-9.52,2.51,1.89,19.82,9.65,14.75,7.11-4.65-3.14-16.46-9.65-14.75ZM-181.11,81.27c-8.08,2.41,1.88,19.84,9.67,14.71,6.34-4.18-1.23-17.23-9.67-14.71ZM-129.57,85.33c-4.52,4.6,1.83,19.15,9.76,15.27,8.36-4.1-3.62-21.51-9.76-15.27ZM-150.11,112.27c-8.66,2.58,3.16,21.53,10.84,13.86,4.76-4.75-3.16-16.15-10.84-13.86ZM-231.07,117.25c-9.65,1.66-.07,18.49,9.23,14.31,7.88-3.55-1.91-15.56-9.23-14.31ZM-179.06,140.84c6.35-6.35-8.55-18.95-13.85-12.36-4.96,6.17,8.41,17.8,13.85,12.36ZM-113.58,133.32c-3.92,3.91-.17,19.76,8.78,15.27,7.6-3.81-1.37-22.67-8.78-15.27ZM-151.1,152.26c-8.26,1.26-4.58,12.01,3.01,13.59,16.69,3.48,6.78-15.08-3.01-13.59ZM-224.96,171.94c4.65-9.74-15.71-18.46-15.81-8.28-.07,6.92,9.76,12.05,15.81,8.28ZM-196.1,171.27c-6.29,1.86-1.99,12.64,5.86,13.77,14.49,2.07,5.25-17.06-5.86-13.77ZM-114.18,176.34c-8.82.94-4.01,15.47,4.89,15.82,11.51.46,2.85-16.64-4.89-15.82ZM-148.09,199.83c6.28-6.82-12.34-16.78-16.26-8.74-3.29,6.76,10.79,14.68,16.26,8.74Z"/>
    <path class="st7" d="M-224.96,171.94c-6.05,3.77-15.88-1.37-15.81-8.28.1-10.17,20.47-1.46,15.81,8.28Z"/>
    <g>
      <path class="st12" d="M-240.82,78.08c-9.85,12.35-21.47,35.21-23,51l-36-7.01c-1.12-1.32,3.21-6.84,4.19-8.31,5.81-8.75,14.51-20.6,21.82-27.68.2-.19,1.67-.23,2.49-.97,9.89-8.97,16.86-11.93,30.51-7.03h0Z"/>
      <path class="st3" d="M-213.82,27.08c5.69,5.39,11.89,10.04,17,16-8.8,3.98-20.62,12.62-28,19-3.72-8.89-15.57-9.89-24-10l5.01-44s29.99,19,29.99,19Z"/>
      <path class="st1" d="M-248.82,52.08c8.43.11,20.28,1.11,24,10-5.2,4.5-11.76,10.69-16,16-13.65-4.9-20.62-1.94-30.51,7.03-.82.74-2.29.78-2.49.97l-18-28.99c14.02-2.16,28.75-5.19,43-5.01Z"/>
      <path class="st1" d="M-213.82,27.08c4.69-5.2,10.59-10.08,16.1-14.4,2-1.57,17.71-13.82,18.89-12.6l6.01,36c-6.81.91-17.71,4.16-24,7-5.11-5.96-11.31-10.61-17-16Z"/>
    </g>
  </g>
  <g id="Layer_3">
    <polygon class="st16" points="107.67 3.21 132.29 83.26 215.33 83.26 148.77 132.23 172.14 212.28 107.67 164.38 43.19 212.28 66.56 132.23 0 83.26 83.04 83.26 107.67 3.21"/>
    <polygon class="st2" points="107.67 162.14 46.43 207.64 68.64 131.53 5.48 85.06 84.37 85.06 107.67 9.33 130.96 85.06 209.85 85.06 146.69 131.53 168.9 207.64 107.67 162.14"/>
    <polygon class="st0" points="107.67 118.96 107.67 164.38 172.14 212.28 107.67 118.96"/>
    <polygon class="st13" points="107.67 23.9 107.67 118.96 127.3 90.06 107.67 23.9"/>
    <polygon class="st8" points="107.67 118.96 215.33 83.26 148.77 132.23 107.67 118.96"/>
    <polygon class="st4" points="107.67 118.96 0 83.26 66.56 132.23 107.67 118.96"/>
    <polygon class="st4" points="43.19 212.28 107.67 118.96 107.67 164.38 43.19 212.28"/>
    <path d="M107.67,16.81l20.8,67.62.87,2.82h73.81l-56.75,41.75-2.25,1.66.78,2.69,20.03,68.61-54.91-40.8-2.39-1.77-2.39,1.77-54.91,40.8,20.03-68.61.78-2.69-2.25-1.66L12.19,87.26h73.81l.87-2.82,20.8-67.62M107.67,3.21l-24.63,80.05H0l66.56,48.97-23.37,80.05,64.47-47.91,64.47,47.91-23.37-80.05,66.56-48.97h-83.04L107.67,3.21h0Z"/>
    <g>
      <g>
        <path class="st5" d="M93.29,177.49V62.59h120.41v114.89h-120.41ZM122.3,152.56h62.4v-65.04h-62.4v65.04Z"/>
        <path d="M212.08,64.22v111.64h-117.16v-111.64h117.16M120.67,154.19h65.65v-68.29h-65.65v68.29M215.33,60.97h-123.67v118.15h123.67V60.97h0ZM123.92,150.93v-61.78h59.15v61.78h-59.15Z"/>
      </g>
      <g>
        <path class="st5" d="M90.27,177.49c-.59,0-1.14-.27-1.5-.73l-26.82-33.95-26.49,33.71c-.48.61-1.2.96-1.98.96H3.25c-.57,0-.83-.4-.91-.57-.08-.17-.24-.62.1-1.07l42.66-55.81L2.44,64.23c-.35-.45-.19-.9-.1-1.07.08-.17.34-.57.91-.57h30.22c.78,0,1.5.35,1.98.96l26.49,33.72,26.82-33.95c.37-.46.91-.73,1.51-.73h35.4l.06.12-46.34,57.33,46.34,57.33-.06.12h-35.4Z"/>
        <path d="M122.41,64.22l-43.47,53.77-1.65,2.05,1.65,2.05,43.47,53.77h-32.15c-.09,0-.17-.04-.23-.11l-25.54-32.33-2.56-3.24-2.55,3.25-25.21,32.09c-.17.22-.43.34-.7.34H4.48l41.16-53.84,1.51-1.98-1.51-1.98L4.48,64.22h28.99c.28,0,.53.12.7.34l25.21,32.09,2.55,3.25,2.56-3.24,25.54-32.33c.06-.07.14-.11.23-.11h32.15M125.67,60.97h-35.4c-1.08,0-2.11.5-2.78,1.35l-25.54,32.33-25.21-32.09c-.79-1-1.99-1.59-3.26-1.59H3.25c-2.19,0-3.43,2.51-2.1,4.25l41.91,54.82L1.15,174.86c-1.33,1.74-.09,4.25,2.1,4.25h30.22c1.27,0,2.48-.58,3.26-1.59l25.21-32.09,25.54,32.33c.67.85,1.7,1.35,2.78,1.35h35.4c1.43,0,2.22-1.66,1.32-2.77l-45.52-56.31,45.52-56.31c.9-1.11.11-2.77-1.32-2.77h0Z"/>
      </g>
    </g>
  </g>
</svg>