<?xml version="1.0" encoding="UTF-8"?>
<svg id="Layer_1" xmlns="http://www.w3.org/2000/svg" version="1.1" viewBox="0 0 215.33 215.49">
  <!-- Generator: Adobe Illustrator 29.4.0, SVG Export Plug-In . SVG Version: 2.1.0 Build 152)  -->
  <defs>
    <style>
      .st0 {
        fill: #8dc540;
      }

      .st1 {
        fill: #658930;
      }

      .st2 {
        fill: #fde7e6;
      }

      .st3 {
        fill: #fde9e8;
      }

      .st4 {
        fill: #ee4e3d;
      }

      .st5 {
        fill: #feeae9;
      }

      .st6 {
        fill: #fde8e7;
      }

      .st7 {
        fill: #668931;
      }

      .st8 {
        fill: #fde6e6;
      }

      .st9 {
        fill: #fde8e8;
      }
    </style>
  </defs>
  <path class="st6" d="M151.91,199.83c-5.47,5.95-19.55-1.97-16.26-8.74,3.92-8.05,22.54,1.91,16.26,8.74Z"/>
  <path class="st8" d="M120.94,140.84c-5.44,5.44-18.81-6.19-13.85-12.36,5.3-6.6,20.2,6.01,13.85,12.36Z"/>
  <path class="st9" d="M149.89,112.27c7.68-2.29,15.6,9.11,10.84,13.86-7.68,7.67-19.5-11.28-10.84-13.86Z"/>
  <path class="st6" d="M78.91,78.24c6.51-1.72,16.76,10.1,9.65,14.75-7.75,5.07-19.17-12.23-9.65-14.75Z"/>
  <path class="st3" d="M118.89,81.27c8.44-2.52,16.01,10.53,9.67,14.71-7.79,5.13-17.75-12.29-9.67-14.71Z"/>
  <path class="st3" d="M170.43,85.33c6.14-6.25,18.12,11.17,9.76,15.27-7.93,3.89-14.28-10.66-9.76-15.27Z"/>
  <path class="st2" d="M68.93,117.25c7.32-1.26,17.11,10.76,9.23,14.31-9.3,4.18-18.88-12.65-9.23-14.31Z"/>
  <path class="st9" d="M186.42,133.32c7.41-7.4,16.38,11.46,8.78,15.27-8.95,4.49-12.7-11.35-8.78-15.27Z"/>
  <path class="st3" d="M135.89,49.29c7.23-2.19,17.25,5.28,11.89,12.89-7.78,6.15-20.58-10.27-11.89-12.89Z"/>
  <path class="st6" d="M185.82,176.34c7.74-.82,16.4,16.28,4.89,15.82-8.9-.36-13.71-14.88-4.89-15.82Z"/>
  <path class="st6" d="M103.9,171.27c11.11-3.29,20.36,15.84,5.86,13.77-7.85-1.12-12.16-11.9-5.86-13.77Z"/>
  <path class="st5" d="M148.9,152.26c9.79-1.49,19.7,17.06,3.01,13.59-7.59-1.58-11.27-12.33-3.01-13.59Z"/>
  <path class="st4" d="M36.18,129.08c1.53-15.79,13.15-38.65,23-51,4.24-5.31,10.8-11.5,16-16,7.38-6.38,19.2-15.02,28-19,6.29-2.84,17.19-6.09,24-7,68.45-9.16,94.84,91.33,86.73,143.23-3.45,22.06-10.32,30.57-32.55,34.45-51.61,9.01-151.73-17.02-145.18-84.68ZM135.89,49.29c-8.68,2.62,4.12,19.05,11.89,12.89,5.36-7.61-4.66-15.08-11.89-12.89ZM78.91,78.24c-9.52,2.51,1.89,19.82,9.65,14.75,7.11-4.65-3.14-16.46-9.65-14.75ZM118.89,81.27c-8.08,2.41,1.88,19.84,9.67,14.71,6.34-4.18-1.23-17.23-9.67-14.71ZM170.43,85.33c-4.52,4.6,1.83,19.15,9.76,15.27,8.36-4.1-3.62-21.51-9.76-15.27ZM149.89,112.27c-8.66,2.58,3.16,21.53,10.84,13.86,4.76-4.75-3.16-16.15-10.84-13.86ZM68.93,117.25c-9.65,1.66-.07,18.49,9.23,14.31,7.88-3.55-1.91-15.56-9.23-14.31ZM120.94,140.84c6.35-6.35-8.55-18.95-13.85-12.36-4.96,6.17,8.41,17.8,13.85,12.36ZM186.42,133.32c-3.92,3.91-.17,19.76,8.78,15.27,7.6-3.81-1.37-22.67-8.78-15.27ZM148.9,152.26c-8.26,1.26-4.58,12.01,3.01,13.59,16.69,3.48,6.78-15.08-3.01-13.59ZM75.04,171.94c4.65-9.74-15.71-18.46-15.81-8.28-.07,6.92,9.76,12.05,15.81,8.28ZM103.9,171.27c-6.29,1.86-1.99,12.64,5.86,13.77,14.49,2.07,5.25-17.06-5.86-13.77ZM185.82,176.34c-8.82.94-4.01,15.47,4.89,15.82,11.51.46,2.85-16.64-4.89-15.82ZM151.91,199.83c6.28-6.82-12.34-16.78-16.26-8.74-3.29,6.76,10.79,14.68,16.26,8.74Z"/>
  <path class="st3" d="M75.04,171.94c-6.05,3.77-15.88-1.37-15.81-8.28.1-10.17,20.47-1.46,15.81,8.28Z"/>
  <g>
    <path class="st7" d="M59.18,78.08c-9.85,12.35-21.47,35.21-23,51L.18,122.07c-1.12-1.32,3.21-6.84,4.19-8.31,5.81-8.75,14.51-20.6,21.82-27.68.2-.19,1.67-.23,2.49-.97,9.89-8.97,16.86-11.93,30.51-7.03Z"/>
    <path class="st1" d="M86.18,27.08c5.69,5.39,11.89,10.04,17,16-8.8,3.98-20.62,12.62-28,19-3.72-8.89-15.57-9.89-24-10l5.01-44,29.99,19Z"/>
    <path class="st0" d="M51.18,52.08c8.43.11,20.28,1.11,24,10-5.2,4.5-11.76,10.69-16,16-13.65-4.9-20.62-1.94-30.51,7.03-.82.74-2.29.78-2.49.97l-18-28.99c14.02-2.16,28.75-5.19,43-5.01Z"/>
    <path class="st0" d="M86.18,27.08c4.69-5.2,10.59-10.08,16.1-14.4,2-1.57,17.71-13.82,18.89-12.6l6.01,36c-6.81.91-17.71,4.16-24,7-5.11-5.96-11.31-10.61-17-16Z"/>
  </g>
</svg>